HIERARCHY
ROOT hip
{
  OFFSET 0.0 0.0 0.0
  CHANNELS 6 Xposition Yposition Zposition Zrotation Yrotation Xrotation
  JOINT abdomen
  {
    OFFSET 0.0 20.6881 -0.73152
    CHANNELS 3 Zrotation Xrotation Yrotation
    JOINT chest
    {
      OFFSET 0.0 11.7043 -0.48768
      CHANNELS 3 Zrotation Xrotation Yrotation
      JOINT neck
      {
        OFFSET 0.0 22.1894 -2.19456
        CHANNELS 3 Zrotation Xrotation Yrotation
        JOINT head
        {
          OFFSET -0.24384 7.07133 1.2192
          CHANNELS 3 Zrotation Xrotation Yrotation
          JOINT leftEye
          {
            OFFSET 4.14528 8.04674 8.04672
            CHANNELS 3 Zrotation Xrotation Yrotation
            End Site
            {
              OFFSET 1.0 0.0 0.0
            }
          }
          JOINT rightEye
          {
            OFFSET -3.6576 8.04674 8.04672
            CHANNELS 3 Zrotation Xrotation Yrotation
            End Site
            {
              OFFSET 1.0 0.0 0.0
            }
          }
        }
      }
      JOINT rCollar
      {
        OFFSET -2.68224 19.2634 -4.8768
        CHANNELS 3 Zrotation Xrotation Yrotation
        JOINT rShldr
        {
          OFFSET -8.77824 -1.95073 1.46304
          CHANNELS 3 Zrotation Xrotation Yrotation
          JOINT rForeArm
          {
            OFFSET -28.1742 -1.7115 0.48768
            CHANNELS 3 Zrotation Xrotation Yrotation
            JOINT rHand
            {
              OFFSET -22.5879 0.773209 7.07136
              CHANNELS 3 Zrotation Xrotation Yrotation
              JOINT rThumb1
              {
                OFFSET -1.2192 -0.487915 3.41376
                CHANNELS 3 Zrotation Xrotation Yrotation
                JOINT rThumb2
                {
                  OFFSET -3.37035 -0.52449 3.41376
                  CHANNELS 3 Zrotation Xrotation Yrotation
                  End Site
                  {
                    OFFSET -1.78271 -1.18214 1.43049
                  }
                }
              }
              JOINT rIndex1
              {
                OFFSET -7.75947 0.938293 5.60832
                CHANNELS 3 Zrotation Xrotation Yrotation
                JOINT rIndex2
                {
                  OFFSET -2.54057 -0.884171 1.56538
                  CHANNELS 3 Zrotation Xrotation Yrotation
                  End Site
                  {
                    OFFSET -1.62519 -0.234802 1.16502
                  }
                }
              }
              JOINT rMid1
              {
                OFFSET -8.24714 1.18213 3.41376
                CHANNELS 3 Zrotation Xrotation Yrotation
                JOINT rMid2
                {
                  OFFSET -3.10165 -0.590103 1.0647
                  CHANNELS 3 Zrotation Xrotation Yrotation
                  End Site
                  {
                    OFFSET -2.48547 -0.328903 0.83742
                  }
                }
              }
              JOINT rRing1
              {
                OFFSET -8.82822 0.546677 1.51678
                CHANNELS 3 Zrotation Xrotation Yrotation
                JOINT rRing2
                {
                  OFFSET -2.60934 -0.819778 -0.0198488
                  CHANNELS 3 Zrotation Xrotation Yrotation
                  End Site
                  {
                    OFFSET -2.33842 -0.294052 0.168128
                  }
                }
              }
              JOINT rPinky1
              {
                OFFSET -8.27202 -0.0477905 -0.4584
                CHANNELS 3 Zrotation Xrotation Yrotation
                JOINT rPinky2
                {
                  OFFSET -1.82734 -0.647385 -0.700984
                  CHANNELS 3 Zrotation Xrotation Yrotation
                  End Site
                  {
                    OFFSET -1.69225 -0.51767 -0.607171
                  }
                }
              }
            }
          }
        }
      }
      JOINT lCollar
      {
        OFFSET 2.68224 19.2634 -4.8768
        CHANNELS 3 Zrotation Xrotation Yrotation
        JOINT lShldr
        {
          OFFSET 8.77824 -1.95073 1.46304
          CHANNELS 3 Zrotation Xrotation Yrotation
          JOINT lForeArm
          {
            OFFSET 28.1742 -1.7115 0.48768
            CHANNELS 3 Zrotation Xrotation Yrotation
            JOINT lHand
            {
              OFFSET 22.5879 0.773209 7.07136
              CHANNELS 3 Zrotation Xrotation Yrotation
              JOINT lThumb1
              {
                OFFSET 1.2192 -0.487915 3.41376
                CHANNELS 3 Zrotation Xrotation Yrotation
                JOINT lThumb2
                {
                  OFFSET 3.37035 -0.52449 3.41376
                  CHANNELS 3 Zrotation Xrotation Yrotation
                  End Site
                  {
                    OFFSET 1.78271 -1.18214 1.43049
                  }
                }
              }
              JOINT lIndex1
              {
                OFFSET 7.75947 0.938293 5.60832
                CHANNELS 3 Zrotation Xrotation Yrotation
                JOINT lIndex2
                {
                  OFFSET 2.54057 -0.884171 1.56538
                  CHANNELS 3 Zrotation Xrotation Yrotation
                  End Site
                  {
                    OFFSET 1.62519 -0.234802 1.16502
                  }
                }
              }
              JOINT lMid1
              {
                OFFSET 8.24714 1.18213 3.41376
                CHANNELS 3 Zrotation Xrotation Yrotation
                JOINT lMid2
                {
                  OFFSET 3.10165 -0.590103 1.0647
                  CHANNELS 3 Zrotation Xrotation Yrotation
                  End Site
                  {
                    OFFSET 2.48547 -0.328903 0.83742
                  }
                }
              }
              JOINT lRing1
              {
                OFFSET 8.82822 0.546677 1.51678
                CHANNELS 3 Zrotation Xrotation Yrotation
                JOINT lRing2
                {
                  OFFSET 2.60934 -0.819778 -0.0198488
                  CHANNELS 3 Zrotation Xrotation Yrotation
                  End Site
                  {
                    OFFSET 2.33842 -0.294052 0.168128
                  }
                }
              }
              JOINT lPinky1
              {
                OFFSET 8.27202 -0.0477905 -0.4584
                CHANNELS 3 Zrotation Xrotation Yrotation
                JOINT lPinky2
                {
                  OFFSET 1.82734 -0.647385 -0.700984
                  CHANNELS 3 Zrotation Xrotation Yrotation
                  End Site
                  {
                    OFFSET 1.69225 -0.51767 -0.607171
                  }
                }
              }
            }
          }
        }
      }
    }
  }
  JOINT rButtock
  {
    OFFSET -8.77824 4.35084 1.2192
    CHANNELS 3 Zrotation Xrotation Yrotation
    JOINT rThigh
    {
      OFFSET 0.0 -1.70687 -2.19456
      CHANNELS 3 Zrotation Xrotation Yrotation
      JOINT rShin
      {
        OFFSET 0.0 -36.8199 0.73152
        CHANNELS 3 Zrotation Xrotation Yrotation
        JOINT rFoot
        {
          OFFSET 0.73152 -45.1104 -5.12064
          CHANNELS 3 Zrotation Xrotation Yrotation
          End Site
          {
            OFFSET -1.1221 -3.69964 12.103
          }
        }
      }
    }
  }
  JOINT lButtock
  {
    OFFSET 8.77824 4.35084 1.2192
    CHANNELS 3 Zrotation Xrotation Yrotation
    JOINT lThigh
    {
      OFFSET 0.0 -1.70687 -2.19456
      CHANNELS 3 Zrotation Xrotation Yrotation
      JOINT lShin
      {
        OFFSET 0.0 -36.8199 0.73152
        CHANNELS 3 Zrotation Xrotation Yrotation
        JOINT lFoot
        {
          OFFSET -0.73152 -45.1104 -5.12064
          CHANNELS 3 Zrotation Xrotation Yrotation
          End Site
          {
            OFFSET 1.1221 -3.69964 12.103
          }
        }
      }
    }
  }
}
MOTION
Frames: 9
Frame Time: 0.00833333
0.0 72.991 0.0 -0.796 73.1926 -3.3949 4.16162 10.4875 -6.74377 3.3008 0.553494 -1.71094 -0.51169 16.4936 -16.4415 3.48552 -28.7275 -31.6422 -0.0 0.0 0.0 -0.0 0.0 0.0 -5.96991e-14 -3.63651e-13 4.09201e-13 48.6638 56.0557 -10.1734 -28.4166 -35.3961 76.1402 -0.13346 -9.55719 -1.35633 9.58202e-10 6.60589e-10 -3.30288e-09 1.67054e-09 1.14473e-09 -5.70647e-09 9.58203e-10 6.60593e-10 -3.30289e-09 7.73091 5.47488 0.417314 9.58192e-10 6.60588e-10 -3.30287e-09 2.90554 0.965183 0.102902 9.58204e-10 6.60591e-10 -3.30288e-09 10.2786 0.731801 0.0259123 9.58195e-10 6.60593e-10 -3.30287e-09 2.22167 -0.733487 -0.20892 -5.9647e-14 -3.63652e-13 4.08944e-13 -83.1232 39.8272 6.61688 19.5937 -12.5079 -37.7065 0.209672 -12.9907 1.85774 -1.62138e-10 -1.38116e-10 2.81646e-10 -2.84786e-10 -2.40682e-10 4.8691e-10 -1.62145e-10 -1.38116e-10 2.81661e-10 -7.73091 5.47488 -0.417314 -1.6214e-10 -1.38117e-10 2.81646e-10 -2.90554 0.965183 -0.102902 -1.62148e-10 -1.38115e-10 2.81648e-10 -10.2786 0.731801 -0.0259123 -1.62135e-10 -1.38115e-10 2.81641e-10 -2.22167 -0.733487 0.20892 -2.03217e-16 0.0 -3.88251e-19 -34.6669 -24.0391 2.6943 -0.515801 52.5632 1.872 5.7631 28.0338 -11.2026 2.03217e-16 0.0 3.88251e-19 28.9 -25.3497 14.8625 0.620207 51.9991 -1.34234 -4.02606 -21.8457 -5.29051
-0.28190000000000026 73.1766 1.0560000000000116 -0.5625 71.619 -2.9604 3.77061 10.1248 -6.40703 3.20983 0.694099 -1.63884 -0.408853 16.3924 -16.1262 3.60195 -28.3056 -30.9732 -0.0 0.0 0.0 -0.0 0.0 0.0 -5.34907e-14 -2.13341e-13 3.38303e-13 48.4997 55.5541 -9.87846 -28.4306 -36.0923 77.1819 -0.1381 -10.2413 -1.45519 3.40172e-10 2.5929e-10 -1.43384e-09 5.93743e-10 4.48851e-10 -2.47606e-09 3.40172e-10 2.59293e-10 -1.43385e-09 7.73091 5.47488 0.417314 3.40157e-10 2.59286e-10 -1.43382e-09 2.90554 0.965183 0.102902 3.40173e-10 2.59293e-10 -1.43384e-09 10.2786 0.731801 0.0259123 3.40162e-10 2.59296e-10 -1.43383e-09 2.22167 -0.733487 -0.20892 -5.34105e-14 -2.13343e-13 3.3811e-13 -83.846 38.342 7.95479 19.5791 -12.4908 -37.6691 0.259325 -14.3616 2.06226 -1.34216e-10 -7.63557e-11 1.98823e-10 -2.35033e-10 -1.32922e-10 3.42818e-10 -1.34226e-10 -7.63574e-11 1.98843e-10 -7.73091 5.47488 -0.417314 -1.34217e-10 -7.63562e-11 1.98826e-10 -2.90554 0.965183 -0.102902 -1.34226e-10 -7.63551e-11 1.98829e-10 -10.2786 0.731801 -0.0259123 -1.3421e-10 -7.6355e-11 1.98821e-10 -2.22167 -0.733487 0.20892 -2.03217e-16 0.0 -3.88251e-19 -34.515 -24.3417 1.6515 -0.504994 51.9138 1.80084 5.87099 27.4742 -11.8152 2.03217e-16 0.0 3.88251e-19 28.8604 -23.9609 14.0771 0.558282 50.5429 -1.32884 -2.93087 -21.1439 -3.19183
-0.5833999999999975 73.4117 2.164999999999992 -0.3205 69.9573 -2.5223 3.34856 9.71309 -6.06207 3.10913 0.842023 -1.56501 -0.29268 16.2938 -15.8049 3.677 -27.8282 -30.3002 -0.0 0.0 0.0 -0.0 0.0 0.0 -5.09335e-14 -1.02572e-13 2.92661e-13 48.5414 55.1106 -9.57705 -28.4165 -36.625 78.0605 -0.13644 -10.4729 -1.48865 -1.02811e-11 1.31729e-10 -4.29941e-10 -1.66983e-11 2.27375e-10 -7.40961e-10 -1.02811e-11 1.31731e-10 -4.29957e-10 7.73091 5.47488 0.417314 -1.02999e-11 1.31723e-10 -4.29922e-10 2.90554 0.965183 0.102902 -1.02801e-11 1.31732e-10 -4.29945e-10 10.2786 0.731801 0.0259123 -1.02937e-11 1.31736e-10 -4.29938e-10 2.22167 -0.733487 -0.20892 -5.08476e-14 -1.02573e-13 2.92512e-13 -84.4855 37.0932 9.28688 19.581 -12.4937 -37.6722 0.312427 -15.7059 2.26491 -3.13696e-11 -2.91116e-11 1.56668e-10 -5.6788e-11 -5.06599e-11 2.70781e-10 -3.13809e-11 -2.9114e-11 1.5669e-10 -7.73091 5.47488 -0.417314 -3.1369e-11 -2.91115e-11 1.56671e-10 -2.90554 0.965183 -0.102902 -3.13788e-11 -2.91109e-11 1.56676e-10 -10.2786 0.731801 -0.0259123 -3.13619e-11 -2.91108e-11 1.56668e-10 -2.22167 -0.733487 0.20892 -2.03217e-16 0.0 -3.88251e-19 -34.2446 -24.6509 0.565899 -0.496883 51.3136 1.72625 5.9555 26.5324 -12.6521 2.03217e-16 0.0 3.88251e-19 28.682 -22.5531 13.1101 0.500968 49.0687 -1.31296 -1.82687 -20.0677 -0.961482
-0.9022999999999968 73.6892 3.3079999999999927 -0.0964 68.2607 -2.0916 2.86019 9.24943 -5.69423 2.99515 1.00243 -1.48653 -0.157198 16.2073 -15.4756 3.69351 -27.2897 -29.6248 -0.0 0.0 0.0 -0.0 0.0 0.0 -5.50012e-14 -4.54767e-14 2.85945e-13 48.8363 54.7423 -9.29166 -28.3895 -36.9807 78.7257 -0.127366 -10.1221 -1.43763 5.70125e-11 4.66584e-10 -8.00245e-10 1.01131e-10 8.07286e-10 -1.38099e-09 5.70134e-11 4.66584e-10 -8.0026e-10 7.73091 5.47488 0.417314 5.69927e-11 4.66576e-10 -8.00227e-10 2.90554 0.965183 0.102902 5.70148e-11 4.66585e-10 -8.00249e-10 10.2786 0.731801 0.0259123 5.69999e-11 4.66589e-10 -8.00243e-10 2.22167 -0.733487 -0.20892 -5.49463e-14 -4.54728e-14 2.85808e-13 -85.0497 36.1058 10.6307 19.6002 -12.517 -37.7181 0.369982 -17.116 2.47928 2.30058e-10 4.26341e-13 1.83131e-10 3.93802e-10 3.58984e-13 3.20791e-10 2.30048e-10 4.24511e-13 1.83153e-10 -7.73091 5.47488 -0.417314 2.30061e-10 4.26046e-13 1.83132e-10 -2.90554 0.965183 -0.102902 2.30051e-10 4.27576e-13 1.83138e-10 -10.2786 0.731801 -0.0259123 2.30066e-10 4.28026e-13 1.83131e-10 -2.22167 -0.733487 0.20892 -2.03217e-16 0.0 -3.88251e-19 -33.8526 -24.9713 -0.60813 -0.493298 50.801 1.64375 5.98978 25.0073 -13.8708 2.03217e-16 0.0 3.88251e-19 28.3097 -21.0422 11.9236 0.447181 47.4793 -1.29396 -0.720998 -18.5755 1.49509
-1.2385999999999981 74.0073 4.492000000000004 0.0787 66.5296 -1.6954 2.30853 8.74168 -5.29896 2.86863 1.17556 -1.40225 -0.00680359 16.1246 -15.1364 3.66792 -26.6806 -28.9412 -0.0 0.0 0.0 -0.0 0.0 0.0 -6.14768e-14 -1.61315e-14 2.9663e-13 49.3608 54.3877 -8.99827 -28.3783 -37.2086 79.1086 -0.103829 -9.16268 -1.29872 3.49106e-10 1.09256e-09 -1.94942e-09 6.1111e-10 1.89171e-09 -3.36713e-09 3.49108e-10 1.09256e-09 -1.94944e-09 7.73091 5.47488 0.417314 3.49087e-10 1.09255e-09 -1.94941e-09 2.90554 0.965183 0.102902 3.4911e-10 1.09256e-09 -1.94943e-09 10.2786 0.731801 0.0259123 3.49094e-10 1.09256e-09 -1.94942e-09 2.22167 -0.733487 -0.20892 -6.14787e-14 -1.61211e-14 2.9649e-13 -85.5614 35.3131 11.9955 19.6418 -12.5675 -37.8178 0.44245 -18.6862 2.72237 5.89428e-10 2.20858e-11 2.46991e-10 1.01265e-09 3.74628e-11 4.37596e-10 5.89421e-10 2.20852e-11 2.4701e-10 -7.73091 5.47488 -0.417314 5.89433e-10 2.20845e-11 2.46988e-10 -2.90554 0.965183 -0.102902 5.89423e-10 2.20878e-11 2.46996e-10 -10.2786 0.731801 -0.0259123 5.89434e-10 2.20888e-11 2.46991e-10 -2.22167 -0.733487 0.20892 -2.03217e-16 0.0 -3.88251e-19 -33.3565 -25.3398 -1.89018 -0.495738 50.3909 1.55325 5.92259 22.9811 -15.4446 2.03217e-16 0.0 3.88251e-19 27.8088 -19.4136 10.5513 0.395788 45.7687 -1.27329 0.315056 -16.7333 4.1378
-1.5933999999999955 74.3593 5.712000000000003 0.135 64.7894 -1.3853 1.77523 8.19011 -4.9136 2.7368 1.34962 -1.3196 0.148389 16.0301 -14.793 3.6173 -26.0176 -28.2576 -0.0 0.0 0.0 -0.0 0.0 0.0 -6.68325e-14 -2.17931e-15 3.10102e-13 50.0222 54.0544 -8.66037 -28.3776 -37.3427 79.2999 -0.0775072 -7.90661 -1.11825 6.72825e-10 1.71361e-09 -3.17859e-09 1.17603e-09 2.96759e-09 -5.49152e-09 6.72829e-10 1.7136e-09 -3.1786e-09 7.73091 5.47488 0.417314 6.72807e-10 1.71359e-09 -3.17858e-09 2.90554 0.965183 0.102902 6.72832e-10 1.7136e-09 -3.1786e-09 10.2786 0.731801 0.0259123 6.72815e-10 1.7136e-09 -3.17859e-09 2.22167 -0.733487 -0.20892 -6.68931e-14 -2.16316e-15 3.09954e-13 -86.0661 34.703 13.3798 19.7 -12.6388 -37.9574 0.520193 -20.1376 2.95249 9.03991e-10 3.56738e-11 3.08774e-10 1.55416e-09 6.05845e-11 5.50154e-10 9.03987e-10 3.56746e-11 3.08789e-10 -7.73091 5.47488 -0.417314 9.03997e-10 3.56714e-11 3.08767e-10 -2.90554 0.965183 -0.102902 9.03988e-10 3.56765e-11 3.08777e-10 -10.2786 0.731801 -0.0259123 9.03994e-10 3.56781e-11 3.08773e-10 -2.22167 -0.733487 0.20892 -2.03217e-16 0.0 -3.88251e-19 -32.7584 -25.7125 -3.16662 -0.498263 49.9858 1.46407 5.70778 20.8582 -17.0039 2.03217e-16 0.0 3.88251e-19 27.3212 -17.8443 9.07077 0.35129 44.16 -1.25245 1.13776 -14.5886 6.72821
-1.9688000000000017 74.7438 6.962999999999994 0.0484 63.0624 -1.1825 1.34047 7.59526 -4.57528 2.60708 1.51279 -1.24602 0.298608 15.908 -14.4511 3.55999 -25.3181 -27.581 -0.0 0.0 0.0 -0.0 0.0 0.0 -6.75402e-14 8.73721e-15 3.11744e-13 50.7289 53.7491 -8.24228 -28.3773 -37.4116 79.3968 -0.0548106 -6.66599 -0.941136 8.34996e-10 2.03367e-09 -3.78887e-09 1.45869e-09 3.52183e-09 -6.54632e-09 8.35002e-10 2.03366e-09 -3.78887e-09 7.73091 5.47488 0.417314 8.34981e-10 2.03365e-09 -3.78886e-09 2.90554 0.965183 0.102902 8.35003e-10 2.03366e-09 -3.78887e-09 10.2786 0.731801 0.0259123 8.34986e-10 2.03366e-09 -3.78886e-09 2.22167 -0.733487 -0.20892 -6.76379e-14 8.75526e-15 3.11595e-13 -86.6081 34.2633 14.7818 19.7695 -12.7246 -38.1232 0.58447 -21.1919 3.12356 1.031e-09 4.09974e-11 3.29006e-10 1.77272e-09 6.96573e-11 5.87424e-10 1.031e-09 4.09993e-11 3.29019e-10 -7.73091 5.47488 -0.417314 1.031e-09 4.09946e-11 3.28997e-10 -2.90554 0.965183 -0.102902 1.031e-09 4.10006e-11 3.29007e-10 -10.2786 0.731801 -0.0259123 1.031e-09 4.10025e-11 3.29003e-10 -2.22167 -0.733487 0.20892 -2.03217e-16 0.0 -3.88251e-19 -32.0531 -26.0497 -4.32071 -0.495416 49.4886 1.38599 5.39339 19.0362 -18.204 2.03217e-16 0.0 3.88251e-19 26.9606 -16.5182 7.54665 0.317548 42.8763 -1.23193 1.6465 -12.2005 9.04537
-2.3800999999999988 75.148 8.245000000000005 -0.1919 61.3625 -1.0619 1.01182 6.92101 -4.28173 2.48142 1.66665 -1.18068 0.442018 15.7582 -14.1097 3.47881 -24.548 -26.9095 -0.0 0.0 0.0 -0.0 0.0 0.0 -6.56693e-14 2.04303e-14 3.09182e-13 51.4955 53.4953 -7.74424 -28.3773 -37.4001 79.3808 -0.0324841 -5.37047 -0.756847 7.95593e-10 2.01552e-09 -3.56606e-09 1.38812e-09 3.48928e-09 -6.16138e-09 7.95599e-10 2.01551e-09 -3.56606e-09 7.73091 5.47488 0.417314 7.95582e-10 2.01551e-09 -3.56605e-09 2.90554 0.965183 0.102902 7.95598e-10 2.01552e-09 -3.56606e-09 10.2786 0.731801 0.0259123 7.95583e-10 2.01552e-09 -3.56605e-09 2.22167 -0.733487 -0.20892 -6.57753e-14 2.04441e-14 3.09048e-13 -87.2196 34.0368 16.2386 19.8381 -12.8088 -38.2906 0.616523 -21.6796 3.20386 9.11845e-10 3.42023e-11 2.80017e-10 1.56748e-09 5.79338e-11 5.00467e-10 9.11844e-10 3.42053e-11 2.80028e-10 -7.73091 5.47488 -0.417314 9.1185e-10 3.42001e-11 2.80007e-10 -2.90554 0.965183 -0.102902 9.11844e-10 3.4206e-11 2.80016e-10 -10.2786 0.731801 -0.0259123 9.11847e-10 3.42077e-11 2.8001e-10 -2.22167 -0.733487 0.20892 -2.03217e-16 0.0 -3.88251e-19 -31.1909 -26.3381 -5.32088 -0.484516 48.8445 1.31924 5.06435 17.6034 -19.0635 2.03217e-16 0.0 3.88251e-19 26.6627 -15.4113 5.86297 0.293472 41.8456 -1.20377 1.80258 -9.35212 11.1302
-2.8271999999999977 75.5577 9.543999999999997 -0.5571 59.6982 -1.0083 0.75113 6.17936 -4.01731 2.356 1.8159 -1.12054 0.584271 15.5877 -13.7669 3.36761 -23.7101 -26.2435 -0.0 0.0 0.0 -0.0 0.0 0.0 -6.20979e-14 2.61371e-14 3.06371e-13 52.3583 53.2807 -7.18204 -28.3835 -37.3016 79.2128 -0.0137376 -3.90472 -0.549358 6.53813e-10 1.80317e-09 -2.89217e-09 1.13784e-09 3.11969e-09 -4.9969e-09 6.53818e-10 1.80316e-09 -2.89217e-09 7.73091 5.47488 0.417314 6.53808e-10 1.80316e-09 -2.89216e-09 2.90554 0.965183 0.102902 6.53814e-10 1.80316e-09 -2.89217e-09 10.2786 0.731801 0.0259123 6.53802e-10 1.80316e-09 -2.89216e-09 2.22167 -0.733487 -0.20892 -6.21963e-14 2.61426e-14 3.06259e-13 -87.9017 34.0072 17.7547 19.9119 -12.8993 -38.4738 0.622477 -21.7814 3.22041 6.29512e-10 1.66592e-11 1.88574e-10 1.08121e-09 2.76929e-11 3.3717e-10 6.29512e-10 1.66631e-11 1.88583e-10 -7.73091 5.47488 -0.417314 6.29516e-10 1.6658e-11 1.88564e-10 -2.90554 0.965183 -0.102902 6.29513e-10 1.66632e-11 1.88571e-10 -10.2786 0.731801 -0.0259123 6.29516e-10 1.66644e-11 1.88562e-10 -2.22167 -0.733487 0.20892 -2.03217e-16 0.0 -3.88251e-19 -30.1856 -26.6033 -6.22738 -0.469093 48.115 1.25964 4.71865 16.3509 -19.7431 2.03217e-16 0.0 3.88251e-19 26.3892 -14.4494 4.02023 0.277682 40.9927 -1.16984 1.62452 -6.12293 13.0976
